<?xml version="1.0" encoding="UTF-8" standalone="no"?>
<svg
   inkscape:version="1.4.3 (0d15f75042, 2025-12-25)"
   sodipodi:docname="fosdem-year.svg"
   version="1.1"
   id="svg29"
   xml:space="preserve"
   width="655.62677"
   height="103.948"
   viewBox="0 0 655.62677 103.948"
   xmlns:inkscape="http://www.inkscape.org/namespaces/inkscape"
   xmlns:sodipodi="http://sodipodi.sourceforge.net/DTD/sodipodi-0.dtd"
   xmlns="http://www.w3.org/2000/svg"
   xmlns:svg="http://www.w3.org/2000/svg"
   xmlns:rdf="http://www.w3.org/1999/02/22-rdf-syntax-ns#"
   xmlns:cc="http://creativecommons.org/ns#"
   xmlns:dc="http://purl.org/dc/elements/1.1/"><sodipodi:namedview
     inkscape:document-rotation="0"
     inkscape:current-layer="g39"
     inkscape:window-maximized="0"
     inkscape:window-y="0"
     inkscape:window-x="0"
     inkscape:cy="109.34084"
     inkscape:cx="431.31473"
     inkscape:zoom="1.0746213"
     fit-margin-bottom="0"
     fit-margin-right="0"
     fit-margin-left="0"
     fit-margin-top="0"
     showgrid="false"
     id="namedview27"
     inkscape:window-height="1162"
     inkscape:window-width="1916"
     inkscape:pageshadow="2"
     inkscape:pageopacity="0"
     guidetolerance="10"
     gridtolerance="10"
     objecttolerance="10"
     borderopacity="1"
     bordercolor="#666666"
     pagecolor="#ffffff"
     inkscape:pagecheckerboard="0"
     inkscape:showpageshadow="2"
     inkscape:deskcolor="#d1d1d1" /><metadata
     id="metadata35"><rdf:RDF><cc:Work
         rdf:about=""><dc:format>image/svg+xml</dc:format><dc:type
           rdf:resource="http://purl.org/dc/dcmitype/StillImage" /></cc:Work></rdf:RDF></metadata><defs
     id="defs33" /><g
     id="g37"
     transform="matrix(1.3333333,0,0,-1.3333333,-10.923977,129.50533)"><g
       id="g39"><path
   inkscape:connector-curvature="0"
   d="m 25.895,80.618 0.109,-8.528 v -6.886 h 23.508 c 0.582,-2.188 0.875,-4.575 0.875,-7.164 0,-2.586 -0.293,-4.973 -0.875,-7.161 H 26.004 v -30.07 c -2.32,-0.437 -5.219,-0.656 -8.695,-0.656 -3.477,0 -6.375,0.219 -8.692,0.656 v 74.024 l 0.766,0.66 H 56.18 c 0.437,-1.825 0.656,-4.102 0.656,-6.836 0,-2.735 -0.75,-4.758 -2.246,-6.071 -1.5,-1.312 -3.86,-1.968 -7.078,-1.968 H 25.895"
   style="fill:#231f20;fill-opacity:1;fill-rule:nonzero;stroke:none"
   id="path41" /><path
   inkscape:connector-curvature="0"
   d="m 82.312,41.149 c 1.969,-5.688 5.942,-8.531 11.918,-8.531 2.989,0 5.415,0.746 7.274,2.242 1.859,1.492 3.316,3.391 4.371,5.687 1.059,2.293 1.77,4.864 2.133,7.707 0.367,2.844 0.547,5.649 0.547,8.418 0,2.551 -0.09,5.395 -0.274,8.532 -0.179,3.132 -0.711,6.066 -1.586,8.8 -0.875,2.735 -2.257,5.032 -4.152,6.891 -1.898,1.856 -4.668,2.785 -8.313,2.785 -3.496,0 -6.175,-0.894 -8.035,-2.676 -1.859,-1.789 -3.242,-3.992 -4.156,-6.617 -0.91,-2.625 -1.477,-5.41 -1.695,-8.363 -0.215,-2.953 -0.324,-5.563 -0.324,-7.82 0,-3.352 0.16,-6.34 0.492,-8.965 0.324,-2.625 0.926,-5.321 1.8,-8.09 z m -8.855,-15.09 c -7.801,6.484 -11.699,17.164 -11.699,32.035 0,6.414 0.746,12.047 2.242,16.895 1.492,4.847 3.645,8.91 6.449,12.191 2.805,3.281 6.215,5.758 10.223,7.434 4.012,1.679 8.531,2.515 13.558,2.515 5.032,0 9.571,-0.836 13.614,-2.515 4.047,-1.676 7.472,-4.172 10.281,-7.488 2.805,-3.321 4.953,-7.399 6.449,-12.247 1.492,-4.847 2.242,-10.441 2.242,-16.785 0,-6.34 -0.75,-11.937 -2.242,-16.781 -1.496,-4.852 -3.644,-8.914 -6.449,-12.191 -2.809,-3.282 -6.234,-5.762 -10.281,-7.438 -4.043,-1.676 -8.582,-2.516 -13.614,-2.516 -8.308,0 -15.234,2.297 -20.773,6.891"
   style="fill:#231f20;fill-opacity:1;fill-rule:nonzero;stroke:none"
   id="path43" /><path
   inkscape:connector-curvature="0"
   d="m 132.391,27.262 c 0.218,2.403 0.964,4.809 2.242,7.215 1.273,2.406 2.789,4.375 4.539,5.906 7.797,-4.742 15.199,-7.109 22.195,-7.109 3.063,0 5.305,0.691 6.727,2.078 1.418,1.383 2.129,3.098 2.129,5.141 0,3.425 -2.297,6.121 -6.887,8.09 l -12.902,5.468 c -5.032,2.258 -8.895,4.973 -11.59,8.145 -2.699,3.172 -4.047,7.199 -4.047,12.082 0,3.351 0.672,6.414 2.023,9.183 1.348,2.77 3.242,5.176 5.688,7.219 2.441,2.039 5.336,3.625 8.691,4.754 3.352,1.129 7.071,1.695 11.153,1.695 8.164,0 16.402,-2.078 24.71,-6.23 -0.363,-5.617 -2.332,-9.988 -5.906,-13.121 -7.433,3.57 -13.992,5.359 -19.679,5.359 -2.918,0 -5.106,-0.66 -6.559,-1.972 -1.461,-1.309 -2.188,-2.805 -2.188,-4.481 0,-2.844 2.149,-5.141 6.45,-6.891 l 13.121,-5.574 c 5.539,-2.336 9.676,-5.324 12.41,-8.965 2.734,-3.648 4.101,-7.875 4.101,-12.687 0,-3.426 -0.621,-6.559 -1.859,-9.402 -1.238,-2.844 -3.078,-5.301 -5.519,-7.379 -2.446,-2.078 -5.489,-3.703 -9.133,-4.868 -3.645,-1.164 -7.91,-1.75 -12.793,-1.75 -9.477,0 -18.516,2.696 -27.117,8.094"
   style="fill:#231f20;fill-opacity:1;fill-rule:nonzero;stroke:none"
   id="path45" /><path
   inkscape:connector-curvature="0"
   d="m 228.176,33.821 c 9.621,0 14.433,8.094 14.433,24.273 0,16.254 -4.812,24.383 -14.433,24.383 h -6.18 c -1.785,0 -3.336,0.035 -4.648,0.109 V 33.711 c 1.312,0.075 2.863,0.11 4.648,0.11 z m 20.117,-8.199 c -2.332,-1.899 -5.395,-3.282 -9.184,-4.157 -3.793,-0.875 -7.984,-1.312 -12.574,-1.312 -2.262,0 -5.523,0.039 -9.789,0.109 -4.262,0.074 -9.601,0.184 -16.016,0.328 l -0.765,0.766 v 73.586 l 0.765,0.766 c 4.227,0.144 8.618,0.253 13.176,0.328 4.555,0.074 9.348,0.109 14.379,0.109 6.192,0 11.371,-0.984 15.524,-2.953 4.156,-1.965 7.472,-4.664 9.953,-8.09 2.476,-3.426 4.226,-7.453 5.246,-12.082 1.019,-4.629 1.531,-9.605 1.531,-14.926 0,-7.289 -0.84,-13.593 -2.516,-18.914 -1.675,-5.324 -4.918,-9.84 -9.73,-13.558"
   style="fill:#231f20;fill-opacity:1;fill-rule:nonzero;stroke:none"
   id="path47" /><path
   inkscape:connector-curvature="0"
   d="m 290.172,42.899 -0.11,-7.875 v -0.109 c 3.34,0.144 6.032,0.218 8.063,0.218 h 25.285 c 0,-2.699 -0.109,-4.773 -0.328,-6.234 -0.875,-5.613 -4.59,-8.418 -11.152,-8.418 h -29.086 c -3.133,0 -5.594,0.91 -7.379,2.734 -1.789,1.821 -2.68,4.301 -2.68,7.434 v 64.074 l 0.766,0.77 h 47.125 c 0.437,-2.117 0.656,-4.414 0.656,-6.891 0,-2.48 -0.508,-5.066 -1.527,-7.766 h -29.743 l 0.11,-7.871 v -7.652 c 1.887,0.07 4.351,0.109 7.398,0.109 h 16.657 c 0.656,-2.043 0.984,-4.375 0.984,-7 0,-2.625 -0.328,-5.027 -0.984,-7.214 h -24.055 v -8.309"
   style="fill:#231f20;fill-opacity:1;fill-rule:nonzero;stroke:none"
   id="path49" /><path
   inkscape:connector-curvature="0"
   d="m 333.25,21.028 5.797,74.351 c 3.207,0.582 6.996,0.875 11.371,0.875 4.371,0 8.199,-0.293 11.48,-0.875 l 6.45,-26.789 c 2.55,-12.097 3.898,-18.695 4.047,-19.789 h 0.765 c 0.289,1.821 1.641,8.418 4.047,19.789 l 6.559,26.789 c 3.207,0.582 7,0.875 11.371,0.875 4.375,0 8.203,-0.293 11.484,-0.875 l 5.793,-74.351 c -2.262,-0.582 -5.047,-0.875 -8.363,-0.875 -3.321,0 -6.035,0.183 -8.149,0.547 l -1.75,30.398 c -0.511,12.098 -0.8,20.516 -0.871,25.258 h -0.656 L 381.797,31.852 c -2.621,-0.437 -5.629,-0.656 -9.02,-0.656 -3.39,0 -6.394,0.219 -9.019,0.656 l -10.715,44.504 h -0.766 c 0,-6.488 -0.293,-14.906 -0.875,-25.258 L 349.762,20.7 c -2.117,-0.364 -4.828,-0.547 -8.145,-0.547 -3.32,0 -6.109,0.293 -8.367,0.875"
   style="fill:#231f20;fill-opacity:1;fill-rule:nonzero;stroke:none"
   id="path51" /><text
   transform="scale(1,-1)"
   id="text31"
   y="-42.253777"
   x="412.07602"
   style="font-style:normal;font-variant:normal;font-weight:normal;font-stretch:normal;font-size:64px;line-height:18.75px;font-family:'DejaVu Sans';-inkscape-font-specification:'DejaVu Sans';letter-spacing:0px;word-spacing:0px;fill:#ac1d94;fill-opacity:1;stroke:none;stroke-width:0.75px;stroke-linecap:butt;stroke-linejoin:miter;stroke-opacity:1"
   xml:space="preserve"><tspan
     style="font-style:normal;font-variant:normal;font-weight:bold;font-stretch:normal;font-size:67px;font-family:Signika;-inkscape-font-specification:'Signika Bold';fill:#ac1d94;fill-opacity:1;stroke-width:0.75px"
     y="-42.253777"
     x="412.07602"
     sodipodi:role="line"
     id="tspan1">’26</tspan><tspan
     style="font-style:normal;font-variant:normal;font-weight:bold;font-stretch:normal;font-size:67px;font-family:Signika;-inkscape-font-specification:'Signika Bold';fill:#ac1d94;fill-opacity:1;stroke-width:0.75px"
     y="-23.503777"
     x="412.07602"
     sodipodi:role="line"
     id="tspan2" /></text>


<text
   transform="scale(1,-1)"
   xml:space="preserve"
   style="font-style:normal;font-variant:normal;font-weight:normal;font-stretch:normal;font-size:64px;line-height:18.75px;font-family:'DejaVu Sans';-inkscape-font-specification:'DejaVu Sans';letter-spacing:0px;word-spacing:0px;fill:#000000;fill-opacity:1;stroke:none;stroke-width:0.75px;stroke-linecap:butt;stroke-linejoin:miter;stroke-opacity:1"
   x="8.2164202"
   y="2.5168259"
   id="text823"><tspan
     sodipodi:role="line"
     x="8.2164202"
     y="2.5168259"
     style="font-size:8.00003px;line-height:0px;stroke-width:0.75px"
     id="tspan825"
     dy="12.31">This is the logo used on the website.</tspan><tspan
     sodipodi:role="line"
     x="8.2164202"
     y="26.438694"
     style="font-size:8.00003px;line-height:0px;stroke-width:0.75px"
     id="tspan829">The greyscale version is exactly the same, with all colours replaced with #858585ff.</tspan></text></g></g></svg>
